<svg width="21" height="21" viewBox="0 0 21 21" fill="none" xmlns="http://www.w3.org/2000/svg">
<path fill-rule="evenodd" clip-rule="evenodd" d="M20.4397 20.0321H16.2878V13.5357C16.2878 11.9864 16.2616 9.99361 14.1305 9.99361C11.9706 9.99361 11.6408 11.682 11.6408 13.4246V20.0321H7.49332V6.67282H11.4737V8.49943H11.5306C12.0843 7.44878 13.4386 6.34126 15.4585 6.34126C19.6629 6.34126 20.4397 9.10743 20.4397 12.7055V20.0321ZM2.81219 4.84796C1.4781 4.84796 0.402954 3.76931 0.402954 2.43959C0.402954 1.11075 1.4781 0.0321045 2.81219 0.0321045C4.14016 0.0321045 5.21881 1.11075 5.21881 2.43959C5.21881 3.76931 4.14016 4.84796 2.81219 4.84796ZM4.889 20.0321H0.732759V6.67282H4.889V20.0321Z" fill="#212121"/>
</svg>
